<?xml version="1.0" encoding="UTF-8"?>
<!DOCTYPE svg PUBLIC "-//W3C//DTD SVG 1.1//EN" "http://www.w3.org/Graphics/SVG/1.1/DTD/svg11.dtd">
<!-- Creator: CorelDRAW -->
<svg xmlns="http://www.w3.org/2000/svg" xml:space="preserve" width="91.44mm" height="91.44mm" version="1.1" style="shape-rendering:geometricPrecision; text-rendering:geometricPrecision; image-rendering:optimizeQuality; fill-rule:evenodd; clip-rule:evenodd"
viewBox="0 0 9144 9144"
 xmlns:xlink="http://www.w3.org/1999/xlink"
 xmlns:xodm="http://www.corel.com/coreldraw/odm/2003">
 <defs>
  <style type="text/css">
   <![CDATA[
    .fil0 {fill:#6B418D}
    .fil1 {fill:#ECBE2D}
   ]]>
  </style>
 </defs>
 <g id="Camada_x0020_1">
  <metadata id="CorelCorpID_0Corel-Layer"/>
  <g id="_2062911218144">
   <path class="fil0" d="M4475.06 5846.97c-30.62,-22.61 -39.52,-20.48 -87.67,-25.46 -33.2,-3.43 -67.86,-5.36 -101.38,-8.99 -64.94,-7.03 -126.71,-20.4 -188.84,-33.72 -776.26,-166.48 -1367.86,-956.87 -1337.49,-1794.7 34.97,-964.59 804.55,-1751.34 1807.08,-1755.85 1613.46,-7.26 2392.36,1931.53 1325.74,3052.21 -372.76,391.65 -631.82,510 -1219.47,556.41 30.96,81.1 254.58,196.35 204.28,293.45 -75.99,65.1 -192.48,41.33 -325.44,41.42 -126.53,0.07 -251.22,33.85 -293.4,-71.94 11.11,-76.78 168.22,-196.67 216.59,-252.83zm3868.02 -1624.1c19.48,-1042.52 -225.92,-1714.29 -782.31,-2487.09 -174.04,-241.74 -336.52,-360.71 -490,-523.78 -60.68,-64.48 -369.44,-285.74 -431.82,-328.25 -191.46,-130.44 -432.22,-259.67 -664.37,-348.39 -549.62,-210.09 -1085.48,-310.03 -1720.08,-257.14 -752.04,62.67 -1296.77,301.61 -1854.38,675.15l-421.67 338.6 -354.52 390.38c-702.13,828.87 -970.51,2049.91 -747.43,3132.15 80.19,389.08 227.16,762.09 417.42,1101.56 61.07,108.96 133.34,209.43 198.9,308.11 70.62,106.29 148.3,189.33 221.65,284.81l762.77 756.77c47.31,43.85 84.15,78.19 131.73,121.7 46.83,42.84 76.27,88.22 121.87,131.01 150.15,140.82 534.29,487.81 648.78,617.65 38.42,43.58 89.34,80.46 134.45,118.85l261.33 245.3c131.14,111.65 61.77,97.22 278.32,228.38 240.66,145.77 516.96,195 820.21,108.17 212.22,-60.77 317.24,-175.37 460.67,-300.94 50.46,-44.18 75.86,-82.75 124.02,-128.79 76.16,-72.82 206.32,-167.8 264.89,-241.64 85.42,-107.71 174.13,-154.6 260.96,-245.73 162.83,-170.95 227.19,-211.25 384.04,-375.42l524.58 -488.68c45.13,-40.85 60.38,-66.73 117.07,-120.97 186.23,-178.21 187.66,-150.82 378.06,-381.92 25.07,-30.42 38.71,-40.94 64.17,-69.86 128.12,-145.58 349.56,-484.09 455.17,-676.93 226.44,-413.46 425.23,-1032.42 435.52,-1583.06z"/>
   <path class="fil1" d="M4475.06 5846.97c-48.37,56.16 -205.48,176.05 -216.59,252.83 42.18,105.79 166.87,72.01 293.4,71.94 132.96,-0.09 249.45,23.68 325.44,-41.42 50.3,-97.1 -173.32,-212.35 -204.28,-293.45 587.65,-46.41 846.71,-164.76 1219.47,-556.41 1066.62,-1120.68 287.72,-3059.47 -1325.74,-3052.21 -1002.53,4.51 -1772.11,791.26 -1807.08,1755.85 -30.37,837.83 561.23,1628.22 1337.49,1794.7 62.13,13.32 123.9,26.69 188.84,33.72 33.52,3.63 68.18,5.56 101.38,8.99 48.15,4.98 57.05,2.85 87.67,25.46z"/>
  </g>
 </g>
</svg>
