<?xml version="1.0" encoding="UTF-8"?>
<!DOCTYPE svg PUBLIC "-//W3C//DTD SVG 1.1//EN" "http://www.w3.org/Graphics/SVG/1.1/DTD/svg11.dtd">
<!-- Creator: CorelDRAW -->
<svg xmlns="http://www.w3.org/2000/svg" xml:space="preserve" width="45mm" height="12mm" version="1.1" style="shape-rendering:geometricPrecision; text-rendering:geometricPrecision; image-rendering:optimizeQuality; fill-rule:evenodd; clip-rule:evenodd"
viewBox="0 0 4500 1200"
 xmlns:xlink="http://www.w3.org/1999/xlink"
 xmlns:xodm="http://www.corel.com/coreldraw/odm/2003">
 <defs>
  <style type="text/css">
   <![CDATA[
    .fil1 {fill:#783F91}
    .fil2 {fill:#FCBF00}
    .fil0 {fill:#FDFDFD}
   ]]>
  </style>
 </defs>
 <g id="Camada_x0020_1">
  <metadata id="CorelCorpID_0Corel-Layer"/>
  <g id="_2616065051168">
   <path class="fil0" d="M95.21 580.25c-24.74,-260.43 189.81,-477.17 443.92,-465.93 243.43,10.76 448.31,231.88 401.8,501.57 -23.59,136.81 -105.08,218.14 -174.86,281.3 -20.17,18.26 -37.86,37.48 -58.16,55.85l-58.12 55.9c-44.56,42.18 -79.72,88.99 -147.3,77.47 -33.79,-5.75 -55.74,-23.07 -72.29,-41.37 -18.38,-20.31 -40.94,-34.3 -59.04,-55.06l-115.89 -112.18c-86.48,-81.62 -147.24,-162.55 -160.06,-297.55zm3700.22 -296.15c18.13,-3.94 50.02,1.58 66.12,7.66 49.92,18.86 37.05,52.88 37.05,115.7 0,59.09 -6.64,57.32 16.16,59.25 134.72,11.43 198.55,-36.34 260.84,-43.51 96.52,-11.09 166.54,44.88 195.52,105.55 30.46,63.77 22.3,198.86 19.43,278.34 -15.12,2.9 -44.84,3.13 -60.34,0.99 -19.91,-2.77 -26.74,-15.09 -38.26,-23.51 -112.44,53.35 -238.56,17.37 -275.47,-101.51 -16.84,-54.3 -10.11,-69.32 -4.72,-121.07l-113.16 -1.92c0,55.72 -11.78,127.23 33.17,145.42 26.56,10.75 51.47,2.04 66.41,23.31 11.17,15.94 13.15,55.7 8.73,77.66 -79.47,8.47 -144.99,-11.67 -178.85,-59.51 -43.79,-61.88 -32.07,-126.01 -32.94,-208.99 -54.33,-9.14 -193.4,-29.38 -235.79,-3.53 1.4,24.54 24.75,26.84 47.91,32.33 20.22,4.79 41.95,9.25 60.9,15.19 118.87,37.3 104.07,141.61 60.86,185.25 -23,23.22 -65.59,38.63 -110.79,41.61 -53.89,3.56 -90.91,-4.02 -139.28,-16.9 -53.36,-14.23 -80.66,-8.6 -132.1,4.26 -140.23,35.06 -272.89,-27.72 -281.36,-160.53 -3.11,-48.69 5.57,-89.73 28.4,-123.43 21.99,-32.43 41.11,-49.16 84.9,-67.16 135.87,-55.82 293.36,20.67 241.32,154.94 -36.44,94 -181.55,34.69 -234.46,70.11 7.56,32.53 61.93,47.22 103.23,43.69 42.62,-3.66 81.78,-20.38 125.17,-23.77 53.73,-4.19 225.89,60.55 247.03,0.82 0.04,-29.78 -92.66,-31.45 -145.19,-60.22 -40.17,-22 -75.09,-74.99 -44.89,-135.28 46.84,-93.54 211.24,-62.59 324.24,-51.76l0.21 -159.48zm-2746.89 157.92c0,-33.4 0.44,-66.84 0.19,-100.27 -0.17,-20.8 -6.26,-35.19 11.87,-37.16 117.81,-12.91 88.13,93.6 93.68,150.55 55.44,-30.05 120.67,-47.12 185.41,-19 142.42,61.87 35.08,255.4 113.08,270.57 19.1,3.71 36.01,-6.96 43.03,-19.76 8.99,-16.44 4.36,-168.33 4.36,-193.09 0,-41.75 21.6,-58.44 64.81,-57.42 45.58,1.07 54.41,27.39 83,40.45 66.94,30.56 130.08,-21.75 183.22,-42.12 68.22,-26.14 146.97,-10.52 191.92,26.4 50.7,41.62 64.83,86.74 72.26,173.6l50.37 -23.14c5.5,-265.07 395.24,-238.11 362.59,-42.17 -22.47,134.91 -177.62,64.08 -244.18,100.43 31.8,76.42 196.52,29.06 304.28,24.65l-0.04 -259.03c51.48,-9.93 75.76,5.8 99.36,29.7 35.45,-28.79 82.92,-41.07 146.17,-31.17 5.37,39.91 -3.34,76.41 -32.04,91.02 -36.8,18.72 -63.32,-1.45 -86.92,37.52 -34.56,57.1 -9.07,160.99 -19.05,229.78 -12.79,0.84 -48.64,-6.34 -70.37,-6.4 -101.43,-0.34 -135.67,12.98 -221.04,18.68 -52.43,3.5 -97.04,1.39 -138.21,-20.68 -50.85,-27.28 -55.25,-51.61 -79.63,-76.25 -17.89,5.89 -57.28,30.3 -80.47,40.89 -27.52,12.57 -54.41,23.63 -82.01,35.5 -27.81,11.96 -58.26,24.03 -93.26,23.76 -45.69,-0.36 -61.67,-11.33 -98.39,-21.09 -0.2,40.44 4.96,72.84 -19.06,97.64 -17.96,18.54 -47.84,33.7 -83.83,30.86l-1.18 -329.98c-31.41,-8.84 -28.28,6.79 -104.53,-24.49l-0.64 116.21c-0.17,80.96 -50.3,114.09 -134.57,117.11 -257.85,9.23 -84.2,-240.41 -206.72,-273.63 -38.7,-10.49 -70.63,4.07 -88.36,27.45 -19.07,25.14 -20.54,60.47 -20.54,97.97 -0.32,86.89 15.42,130.35 -54.57,144.97 -61.64,12.85 -49.99,1.75 -49.99,-51.67l0 -297.19zm487.26 -155.7c78.78,-27.1 121.22,79.11 42.84,103.46 -75.32,23.4 -125.93,-74.88 -42.84,-103.46zm1326.2 520.78c-6.91,-33.47 -1.73,-143.91 -1.73,-185.39 0,-113.07 -21.81,-245.23 60.27,-306.98 41.14,-30.97 90.92,-34.57 152.74,-31.85 2.98,140.65 -51.03,72.1 -91.59,110.24 -10.19,9.57 -17.51,27.91 -17.16,48.35 45.72,0 101.57,-5.62 100.07,48.73 -1.41,50.97 -53.98,44.76 -100.9,44.76l0.06 190.45c0.69,36.5 1.74,52.58 -24.99,67.15 -21,11.44 -50.44,15.68 -76.77,14.54zm-2851.74 -295.97c0,110.43 10,178.97 59.88,271.88 16.68,31.07 34.54,55.73 55.6,82.62 37.38,47.72 129.99,127.69 173.94,171.65 25.48,25.48 80.05,79.62 107.96,99.38 81.73,57.89 188.24,41.9 256.62,-26.82l202.17 -191.79c18.07,-18.07 29.75,-30.98 46.56,-50.2 13.04,-14.93 29.9,-46.53 44.15,-56.06 2.36,28.38 28.72,56.26 50.79,66.71 28.6,13.53 67.36,12.15 98.88,6.93 50.14,-8.29 129.2,-47.24 133.7,-101.29l6.92 0c6.29,27.02 45.74,60.63 69.05,72.63 53.91,27.73 94.67,31.04 159.02,31.04 40.47,0 74.01,-9.03 107.28,-24.03 11.29,-5.1 18.38,-11.06 30.95,-13.99 0,65.8 -4.93,114.35 49.71,147.28 49.73,29.95 123.11,7.84 162.54,-17.96 18.59,-12.17 24.34,-18.38 39.23,-33.35 15.39,-15.44 18.44,-25.22 28.44,-44.13 68.78,0 86.7,-5.64 136.75,-25.66 21.47,-8.58 37.27,-15.94 58.26,-24.69 19.59,-8.16 40.15,-16.62 57.25,-25.67 22.98,34.3 93.95,63.63 137.6,69.75 119.2,16.72 205.48,-14.46 335.85,-14.46 41.8,0 86.93,29.13 133.43,-32.45 3,-3.97 6.28,-9.43 8.04,-12.68 1.24,-2.27 2.67,-5.34 3.48,-6.89l3.64 -6.72c9.07,108.92 184.2,93.71 249.76,28.57 10.57,-10.5 22.57,-23.45 26.71,-38.94 9.1,6.09 11.64,10.71 19.89,18.11 74.6,66.9 186.82,83.29 286.22,63.37 114.16,-22.91 36.27,-19.99 152.58,2.38 63.34,12.18 143.16,12.43 204.44,-8.22 36.06,-12.15 51.57,-25.6 79.86,-44.54 88.28,59.12 118.36,58.74 224.62,58.74 52.01,0 31.06,-33.41 81.91,-12.79 55.07,22.34 120.87,15.66 176.59,4.99 21.56,-4.11 119.05,36.78 181,-12.31 18.88,-14.98 33.94,-40.24 33.94,-73.19l0 -200.44c0,-76.51 -29.51,-141.99 -80.34,-192.65 -13.49,-13.44 -20.44,-21.26 -36.12,-33 -11.95,-8.92 -29.53,-20.57 -42.5,-26.63 -72.89,-34.05 -163.51,-36.94 -238.43,-6.87 -20.28,8.14 -65.56,20.71 -93.33,20.71 0,-81.89 -20.07,-132.84 -92.24,-163.48 -54.11,-22.97 -139.83,-30.82 -176.41,12.32 -21.95,25.89 -25.67,42.31 -24.98,89.08 0.6,40.75 6.16,27.57 -79.6,27.52 -40.42,-0.02 -70.25,1.96 -101.57,12.46l-59.8 26.59c-9.6,5.81 -10.59,7.62 -18.32,12.79 -2.48,-2.15 -0.76,-1.13 -5.62,-4.74 -50.32,-37.47 -114.18,-50.56 -177.54,-50.56 -37.21,0 -63.95,10.44 -93.3,17.29 14.4,-61.82 -0.73,-140.5 -67.75,-156.88 -70.55,-17.25 -169.09,3.66 -218.4,36.6 -36.59,24.45 -79.84,64.06 -90.53,109.91 -36.98,0 -69.55,-0.54 -98.84,8.46 -30.28,9.3 -35.33,-8.46 -111.96,-8.46 -32.16,0 -52.6,11.96 -76.03,27.64 -96.27,-64.46 -254.8,-52.14 -343.21,19.64 -14.26,11.58 -28.17,27.48 -40.37,35.66 -32.08,-47.9 -130.28,-93.3 -186.62,-93.3 -47.78,0 -95.02,0.94 -139.28,19.68 -15.41,6.51 -28.1,11.98 -42.76,19.44 -14.94,7.58 -25.54,15.64 -42.58,19.62 7.21,-30.94 12.7,-39.49 6.03,-75.12 -6.3,-33.58 -21.43,-57.9 -44.36,-80.07 -82.02,-79.29 -225.84,-45.14 -260.28,53.56 -10.51,30.13 -8.96,35.56 -8.96,73.98 -45.43,-10.58 -28.24,-31.09 -158.96,-31.09 -0.67,-30.18 -32.89,-68.85 -51.24,-83.55 -53.21,-42.63 -207.26,-60.21 -228.68,31.71 -13.48,-9.89 -23.96,-31.9 -34.05,-45.43 -34.65,-46.41 -79.54,-89.35 -129.42,-119.39 -9.23,-5.56 -15.25,-10.14 -23.25,-14.77 -8.62,-5.01 -18.57,-9.45 -27.53,-13.94 -222.7,-111.62 -497.44,-38.99 -641.33,160.41 -51.51,71.4 -94.75,170.11 -94.75,268.1z"/>
   <path class="fil1" d="M509.71 744.14c-32.91,-6.65 -51.24,-5.23 -80.3,-19.72 -68.46,-34.11 -115.84,-102.89 -113.45,-189.12 3.08,-111.34 92.34,-199.6 205.76,-198.89 196.3,1.25 260.11,237.27 148.46,343.92 -42.79,40.86 -61.72,58.98 -137.76,63.28 10.28,18.74 29.33,21.53 20.55,33.02 -5.08,6.64 -20.39,5.34 -31.21,5.24 -12.67,-0.1 -21.38,0.51 -33.86,-2.1 -3.09,-17.44 12.77,-27.26 21.81,-35.63zm-414.5 -163.89c12.82,135 73.58,215.93 160.06,297.55l115.89 112.18c18.1,20.76 40.66,34.75 59.04,55.06 16.55,18.3 38.5,35.62 72.29,41.37 67.58,11.52 102.74,-35.29 147.3,-77.47l58.12 -55.9c20.3,-18.37 37.99,-37.59 58.16,-55.85 69.78,-63.16 151.27,-144.49 174.86,-281.3 46.51,-269.69 -158.37,-490.81 -401.8,-501.57 -254.11,-11.24 -468.66,205.5 -443.92,465.93z"/>
   <path class="fil2" d="M1878.09 528.21c55.3,-15.32 98.05,21.04 109.84,61.42 15.9,54.42 -21.17,100.95 -61.99,112.64 -113.55,32.52 -167.64,-140.86 -47.85,-174.06zm374.69 52.6c27.35,-65.15 110.44,-88.28 143.77,-57.64 21.52,19.77 20.96,47.84 -43.26,47.02 -40.69,-0.52 -63.49,5.85 -100.51,10.62zm-1204.24 -138.79l0 297.19c0,53.42 -11.65,64.52 49.99,51.67 69.99,-14.62 54.25,-58.08 54.57,-144.97 0,-37.5 1.47,-72.83 20.54,-97.97 17.73,-23.38 49.66,-37.94 88.36,-27.45 122.52,33.22 -51.13,282.86 206.72,273.63 84.27,-3.02 134.4,-36.15 134.57,-117.11l0.64 -116.21c76.25,31.28 73.12,15.65 104.53,24.49l1.18 329.98c35.99,2.84 65.87,-12.32 83.83,-30.86 24.02,-24.8 18.86,-57.2 19.06,-97.64 36.72,9.76 52.7,20.73 98.39,21.09 35,0.27 65.45,-11.8 93.26,-23.76 27.6,-11.87 54.49,-22.93 82.01,-35.5 23.19,-10.59 62.58,-35 80.47,-40.89 24.38,24.64 28.78,48.97 79.63,76.25 41.17,22.07 85.78,24.18 138.21,20.68 85.37,-5.7 119.61,-19.02 221.04,-18.68 21.73,0.06 57.58,7.24 70.37,6.4 9.98,-68.79 -15.51,-172.68 19.05,-229.78 23.6,-38.97 50.12,-18.8 86.92,-37.52 28.7,-14.61 37.41,-51.11 32.04,-91.02 -63.25,-9.9 -110.72,2.38 -146.17,31.17 -23.6,-23.9 -47.88,-39.63 -99.36,-29.7l0.04 259.03c-107.76,4.41 -272.48,51.77 -304.28,-24.65 66.56,-36.35 221.71,34.48 244.18,-100.43 32.65,-195.94 -357.09,-222.9 -362.59,42.17l-50.37 23.14c-7.43,-86.86 -21.56,-131.98 -72.26,-173.6 -44.95,-36.92 -123.7,-52.54 -191.92,-26.4 -53.14,20.37 -116.28,72.68 -183.22,42.12 -28.59,-13.06 -37.42,-39.38 -83,-40.45 -43.21,-1.02 -64.81,15.67 -64.81,57.42 0,24.76 4.63,176.65 -4.36,193.09 -7.02,12.8 -23.93,23.47 -43.03,19.76 -78,-15.17 29.34,-208.7 -113.08,-270.57 -64.74,-28.12 -129.97,-11.05 -185.41,19 -5.55,-56.95 24.13,-163.46 -93.68,-150.55 -18.13,1.97 -12.04,16.36 -11.87,37.16 0.25,33.43 -0.19,66.87 -0.19,100.27z"/>
   <path class="fil1" d="M4176.21 528.27c53.96,-14.96 99.51,20.83 110.51,64.08 14.22,55.87 -23.67,100.81 -64.91,111.4 -114.78,29.46 -165.42,-142.26 -45.6,-175.48zm-1003.85 48.83c24.67,-63.04 103.07,-84.32 143.33,-50.41 35.94,30.27 -1.42,44.97 -39.7,43.33 -39.36,-1.68 -66.51,3.31 -103.63,7.08zm622.86 -133.52c-113,-10.83 -277.4,-41.78 -324.24,51.76 -30.2,60.29 4.72,113.28 44.89,135.28 52.53,28.77 145.23,30.44 145.19,60.22 -21.14,59.73 -193.3,-5.01 -247.03,-0.82 -43.39,3.39 -82.55,20.11 -125.17,23.77 -41.3,3.53 -95.67,-11.16 -103.23,-43.69 52.91,-35.42 198.02,23.89 234.46,-70.11 52.04,-134.27 -105.45,-210.76 -241.32,-154.94 -43.79,18 -62.91,34.73 -84.9,67.16 -22.83,33.7 -31.51,74.74 -28.4,123.43 8.47,132.81 141.13,195.59 281.36,160.53 51.44,-12.86 78.74,-18.49 132.1,-4.26 48.37,12.88 85.39,20.46 139.28,16.9 45.2,-2.98 87.79,-18.39 110.79,-41.61 43.21,-43.64 58.01,-147.95 -60.86,-185.25 -18.95,-5.94 -40.68,-10.4 -60.9,-15.19 -23.16,-5.49 -46.51,-7.79 -47.91,-32.33 42.39,-25.85 181.46,-5.61 235.79,3.53 0.87,82.98 -10.85,147.11 32.94,208.99 33.86,47.84 99.38,67.98 178.85,59.51 4.42,-21.96 2.44,-61.72 -8.73,-77.66 -14.94,-21.27 -39.85,-12.56 -66.41,-23.31 -44.95,-18.19 -33.17,-89.7 -33.17,-145.42l113.16 1.92c-5.39,51.75 -12.12,66.77 4.72,121.07 36.91,118.88 163.03,154.86 275.47,101.51 11.52,8.42 18.35,20.74 38.26,23.51 15.5,2.14 45.22,1.91 60.34,-0.99 2.87,-79.48 11.03,-214.57 -19.43,-278.34 -28.98,-60.67 -99,-116.64 -195.52,-105.55 -62.29,7.17 -126.12,54.94 -260.84,43.51 -22.8,-1.93 -16.16,-0.16 -16.16,-59.25 0,-62.82 12.87,-96.84 -37.05,-115.7 -16.1,-6.08 -47.99,-11.6 -66.12,-7.66l-0.21 159.48z"/>
   <path class="fil2" d="M509.71 744.14c-9.04,8.37 -24.9,18.19 -21.81,35.63 12.48,2.61 21.19,2 33.86,2.1 10.82,0.1 26.13,1.4 31.21,-5.24 8.78,-11.49 -10.27,-14.28 -20.55,-33.02 76.04,-4.3 94.97,-22.42 137.76,-63.28 111.65,-106.65 47.84,-342.67 -148.46,-343.92 -113.42,-0.71 -202.68,87.55 -205.76,198.89 -2.39,86.23 44.99,155.01 113.45,189.12 29.06,14.49 47.39,13.07 80.3,19.72z"/>
   <path class="fil1" d="M2862 807.1c26.33,1.14 55.77,-3.1 76.77,-14.54 26.73,-14.57 25.68,-30.65 24.99,-67.15l-0.06 -190.45c46.92,0 99.49,6.21 100.9,-44.76 1.5,-54.35 -54.35,-48.73 -100.07,-48.73 -0.35,-20.44 6.97,-38.78 17.16,-48.35 40.56,-38.14 94.57,30.41 91.59,-110.24 -61.82,-2.72 -111.6,0.88 -152.74,31.85 -82.08,61.75 -60.27,193.91 -60.27,306.98 0,41.48 -5.18,151.92 1.73,185.39z"/>
   <path class="fil0" d="M4176.21 528.27c-119.82,33.22 -69.18,204.94 45.6,175.48 41.24,-10.59 79.13,-55.53 64.91,-111.4 -11,-43.25 -56.55,-79.04 -110.51,-64.08z"/>
   <path class="fil0" d="M1878.09 528.21c-119.79,33.2 -65.7,206.58 47.85,174.06 40.82,-11.69 77.89,-58.22 61.99,-112.64 -11.79,-40.38 -54.54,-76.74 -109.84,-61.42z"/>
   <path class="fil2" d="M1535.8 286.32c-83.09,28.58 -32.48,126.86 42.84,103.46 78.38,-24.35 35.94,-130.56 -42.84,-103.46z"/>
   <path class="fil0" d="M2252.78 580.81c37.02,-4.77 59.82,-11.14 100.51,-10.62 64.22,0.82 64.78,-27.25 43.26,-47.02 -33.33,-30.64 -116.42,-7.51 -143.77,57.64z"/>
   <path class="fil0" d="M3172.36 577.1c37.12,-3.77 64.27,-8.76 103.63,-7.08 38.28,1.64 75.64,-13.06 39.7,-43.33 -40.26,-33.91 -118.66,-12.63 -143.33,50.41z"/>
  </g>
 </g>
</svg>
